<?xml version="1.0" standalone="no"?><!DOCTYPE svg PUBLIC "-//W3C//DTD SVG 1.1//EN" "http://www.w3.org/Graphics/SVG/1.1/DTD/svg11.dtd"><svg t="1781407912392" class="icon" viewBox="0 0 1024 1024" version="1.1" xmlns="http://www.w3.org/2000/svg" p-id="17750" xmlns:xlink="http://www.w3.org/1999/xlink" width="32" height="32"><path d="M512 128C299.946667 128 128 299.946667 128 512L0 512 170.666667 682.666667 341.333333 512 213.333333 512C213.333333 346.88 346.88 213.333333 512 213.333333 677.12 213.333333 810.666667 346.88 810.666667 512 810.666667 677.12 677.12 810.666667 512 810.666667 448 810.666667 387.84 789.333333 338.773333 755.2L277.333333 816.64C343.04 866.133333 424.106667 896 512 896 724.053333 896 896 724.053333 896 512 896 299.946667 724.053333 128 512 128M597.333333 512C597.333333 465.066667 558.933333 426.666667 512 426.666667 465.066667 426.666667 426.666667 465.066667 426.666667 512 426.666667 558.933333 465.066667 597.333333 512 597.333333 558.933333 597.333333 597.333333 558.933333 597.333333 512Z" p-id="17751"></path></svg>